<mxfile host="65bd71144e">
    <diagram id="J_nw8fLgjp7p8MdD_50z" name="第 1 页">
        <mxGraphModel dx="1177" dy="1094" grid="1" gridSize="10" guides="1" tooltips="1" connect="1" arrows="1" fold="1" page="1" pageScale="1" pageWidth="583" pageHeight="827" math="0" shadow="0">
            <root>
                <mxCell id="0"/>
                <mxCell id="1" parent="0"/>
                <mxCell id="2" value="" style="rounded=1;whiteSpace=wrap;html=1;hachureGap=4;fontFamily=Architects Daughter;fontSource=https%3A%2F%2Ffonts.googleapis.com%2Fcss%3Ffamily%3DArchitects%2BDaughter;fontSize=20;" parent="1" vertex="1">
                    <mxGeometry x="350" y="50" width="460" height="120" as="geometry"/>
                </mxCell>
                <mxCell id="3" value="中" style="rounded=1;whiteSpace=wrap;html=1;hachureGap=4;fontFamily=Architects Daughter;fontSource=https%3A%2F%2Ffonts.googleapis.com%2Fcss%3Ffamily%3DArchitects%2BDaughter;fontSize=20;" parent="1" vertex="1">
                    <mxGeometry x="380" y="80" width="80" height="60" as="geometry"/>
                </mxCell>
                <mxCell id="4" value="美" style="rounded=1;whiteSpace=wrap;html=1;hachureGap=4;fontFamily=Architects Daughter;fontSource=https%3A%2F%2Ffonts.googleapis.com%2Fcss%3Ffamily%3DArchitects%2BDaughter;fontSize=20;" parent="1" vertex="1">
                    <mxGeometry x="480" y="80" width="80" height="60" as="geometry"/>
                </mxCell>
                <mxCell id="5" value="日" style="rounded=1;whiteSpace=wrap;html=1;hachureGap=4;fontFamily=Architects Daughter;fontSource=https%3A%2F%2Ffonts.googleapis.com%2Fcss%3Ffamily%3DArchitects%2BDaughter;fontSize=20;" parent="1" vertex="1">
                    <mxGeometry x="590" y="80" width="80" height="60" as="geometry"/>
                </mxCell>
                <mxCell id="6" value="台" style="rounded=1;whiteSpace=wrap;html=1;hachureGap=4;fontFamily=Architects Daughter;fontSource=https%3A%2F%2Ffonts.googleapis.com%2Fcss%3Ffamily%3DArchitects%2BDaughter;fontSize=20;" parent="1" vertex="1">
                    <mxGeometry x="700" y="80" width="80" height="60" as="geometry"/>
                </mxCell>
                <mxCell id="7" value="结束回合" style="rounded=1;whiteSpace=wrap;html=1;hachureGap=4;fontFamily=Architects Daughter;fontSource=https%3A%2F%2Ffonts.googleapis.com%2Fcss%3Ffamily%3DArchitects%2BDaughter;fontSize=20;" parent="1" vertex="1">
                    <mxGeometry x="1000" y="300" width="120" height="60" as="geometry"/>
                </mxCell>
                <mxCell id="8" value="回合数" style="rounded=1;whiteSpace=wrap;html=1;hachureGap=4;fontFamily=Architects Daughter;fontSource=https%3A%2F%2Ffonts.googleapis.com%2Fcss%3Ffamily%3DArchitects%2BDaughter;fontSize=20;" parent="1" vertex="1">
                    <mxGeometry x="1000" y="40" width="120" height="110" as="geometry"/>
                </mxCell>
                <mxCell id="11" value="报纸" style="rounded=1;whiteSpace=wrap;html=1;hachureGap=4;fontFamily=Architects Daughter;fontSource=https%3A%2F%2Ffonts.googleapis.com%2Fcss%3Ffamily%3DArchitects%2BDaughter;fontSize=20;" parent="1" vertex="1">
                    <mxGeometry x="60" y="50" width="160" height="120" as="geometry"/>
                </mxCell>
                <mxCell id="13" value="&lt;font style=&quot;font-size: 22px;&quot;&gt;国内经济&lt;/font&gt;" style="rounded=0;whiteSpace=wrap;html=1;" parent="1" vertex="1">
                    <mxGeometry x="300" y="590" width="120" height="60" as="geometry"/>
                </mxCell>
                <mxCell id="14" value="&lt;font style=&quot;font-size: 22px;&quot;&gt;国内舆情&lt;/font&gt;" style="rounded=0;whiteSpace=wrap;html=1;" parent="1" vertex="1">
                    <mxGeometry x="660" y="590" width="120" height="60" as="geometry"/>
                </mxCell>
                <mxCell id="33" value="大陆" style="rounded=0;whiteSpace=wrap;html=1;fontSize=22;" parent="1" vertex="1">
                    <mxGeometry x="300" y="210" width="120" height="290" as="geometry"/>
                </mxCell>
                <mxCell id="34" value="台湾" style="rounded=0;whiteSpace=wrap;html=1;fontSize=22;" parent="1" vertex="1">
                    <mxGeometry x="450" y="450" width="120" height="60" as="geometry"/>
                </mxCell>
                <mxCell id="35" value="日本" style="rounded=0;whiteSpace=wrap;html=1;fontSize=22;" parent="1" vertex="1">
                    <mxGeometry x="550" y="210" width="70" height="100" as="geometry"/>
                </mxCell>
                <mxCell id="37" value="美国" style="rounded=0;whiteSpace=wrap;html=1;fontSize=22;" parent="1" vertex="1">
                    <mxGeometry x="660" y="320" width="120" height="180" as="geometry"/>
                </mxCell>
                <mxCell id="43" value="标记列表" style="rounded=0;whiteSpace=wrap;html=1;fontSize=22;" parent="1" vertex="1">
                    <mxGeometry x="30" y="230" width="120" height="60" as="geometry"/>
                </mxCell>
                <mxCell id="45" value="标记策略" style="rounded=0;whiteSpace=wrap;html=1;fontSize=22;" parent="1" vertex="1">
                    <mxGeometry x="30" y="310" width="120" height="60" as="geometry"/>
                </mxCell>
                <mxCell id="46" value="国策树" style="rounded=0;whiteSpace=wrap;html=1;fontSize=22;" parent="1" vertex="1">
                    <mxGeometry x="30" y="400" width="120" height="60" as="geometry"/>
                </mxCell>
                <mxCell id="48" value="&lt;span style=&quot;font-size: 31px;&quot;&gt;经济总量&lt;br&gt;120&lt;br&gt;&lt;/span&gt;" style="shape=ext;double=1;rounded=0;whiteSpace=wrap;html=1;" vertex="1" parent="1">
                    <mxGeometry x="50" y="670" width="190" height="100" as="geometry"/>
                </mxCell>
                <mxCell id="49" value="&lt;span style=&quot;font-size: 31px;&quot;&gt;经济增速&lt;br&gt;5&lt;br&gt;&lt;/span&gt;" style="shape=ext;double=1;rounded=0;whiteSpace=wrap;html=1;" vertex="1" parent="1">
                    <mxGeometry x="270" y="670" width="190" height="100" as="geometry"/>
                </mxCell>
                <mxCell id="50" value="&lt;span style=&quot;font-size: 31px;&quot;&gt;文化值&lt;br&gt;2&lt;br&gt;&lt;/span&gt;" style="shape=ext;double=1;rounded=0;whiteSpace=wrap;html=1;" vertex="1" parent="1">
                    <mxGeometry x="480" y="670" width="190" height="100" as="geometry"/>
                </mxCell>
                <mxCell id="51" value="&lt;span style=&quot;font-size: 31px;&quot;&gt;政治值&lt;br&gt;60&lt;br&gt;&lt;/span&gt;" style="shape=ext;double=1;rounded=0;whiteSpace=wrap;html=1;" vertex="1" parent="1">
                    <mxGeometry x="700" y="670" width="190" height="100" as="geometry"/>
                </mxCell>
                <mxCell id="52" value="&lt;span style=&quot;font-size: 31px;&quot;&gt;科技值&lt;br&gt;4&lt;br&gt;&lt;/span&gt;" style="shape=ext;double=1;rounded=0;whiteSpace=wrap;html=1;" vertex="1" parent="1">
                    <mxGeometry x="910" y="670" width="190" height="100" as="geometry"/>
                </mxCell>
            </root>
        </mxGraphModel>
    </diagram>
</mxfile>